HIERARCHY
ROOT Hips
{
    OFFSET 0.000000 0.000000 0.000000
    CHANNELS 6 Xposition Yposition Zposition Zrotation Xrotation Yrotation
    JOINT Chest
    {
        OFFSET -0.000000 0.078598 0.000000
        CHANNELS 3 Zrotation Xrotation Yrotation
        JOINT Chest2
        {
            OFFSET -0.000000 0.230468 0.000000
            CHANNELS 3 Zrotation Xrotation Yrotation
            JOINT Neck
            {
                OFFSET -0.000000 0.249638 0.000000
                CHANNELS 3 Zrotation Xrotation Yrotation
                JOINT Head
                {
                    OFFSET -0.000000 0.103998 0.019170
                    CHANNELS 3 Zrotation Xrotation Yrotation
                    End Site
                    {
                        OFFSET -0.000000 0.191701 0.000000
                    }
                }
            }
            JOINT LeftCollar
            {
                OFFSET 0.038274 0.205938 -0.001496
                CHANNELS 3 Zrotation Xrotation Yrotation
                JOINT LeftShoulder
                {
                    OFFSET 0.132388 0.000000 0.000000
                    CHANNELS 3 Zrotation Xrotation Yrotation
                    JOINT LeftElbow
                    {
                        OFFSET 0.250301 0.000000 0.000000
                        CHANNELS 3 Zrotation Xrotation Yrotation
                        JOINT LeftWrist
                        {
                            OFFSET 0.285291 0.000000 0.000000
                            CHANNELS 3 Zrotation Xrotation Yrotation
                            End Site
                            {
                                OFFSET 0.000000 -0.143776 0.000000
                            }
                        }
                    }
                }
            }
            JOINT RightCollar
            {
                OFFSET -0.038406 0.205938 -0.001496
                CHANNELS 3 Zrotation Xrotation Yrotation
                JOINT RightShoulder
                {
                    OFFSET -0.132388 0.000000 0.000000
                    CHANNELS 3 Zrotation Xrotation Yrotation
                    JOINT RightElbow
                    {
                        OFFSET -0.250301 0.000000 0.000000
                        CHANNELS 3 Zrotation Xrotation Yrotation
                        JOINT RightWrist
                        {
                            OFFSET -0.285291 0.000000 0.000000
                            CHANNELS 3 Zrotation Xrotation Yrotation
                            End Site
                            {
                                OFFSET -0.000000 -0.143776 0.000000
                            }
                        }
                    }
                }
            }
        }
    }
    JOINT LeftHip
    {
        OFFSET 0.095851 0.000000 0.000000
        CHANNELS 3 Zrotation Xrotation Yrotation
        JOINT LeftKnee
        {
            OFFSET -0.000000 -0.406444 0.000000
            CHANNELS 3 Zrotation Xrotation Yrotation
            JOINT LeftAnkle
            {
                OFFSET -0.000000 -0.408443 0.000000
                CHANNELS 3 Zrotation Xrotation Yrotation
                JOINT LeftToe
                {
                    OFFSET -0.000000 -0.062303 0.143776
                    CHANNELS 3 Zrotation Xrotation Yrotation
                    End Site
                    {
                        OFFSET -0.000000 0.000000 0.038340
                    }
                }
            }
        }
    }
    JOINT RightHip
    {
        OFFSET -0.095851 0.000000 0.000000
        CHANNELS 3 Zrotation Xrotation Yrotation
        JOINT RightKnee
        {
            OFFSET -0.000000 -0.406444 0.000000
            CHANNELS 3 Zrotation Xrotation Yrotation
            JOINT RightAnkle
            {
                OFFSET -0.000000 -0.408443 0.000000
                CHANNELS 3 Zrotation Xrotation Yrotation
                JOINT RightToe
                {
                    OFFSET -0.000000 -0.062303 0.143776
                    CHANNELS 3 Zrotation Xrotation Yrotation
                    End Site
                    {
                        OFFSET -0.000000 0.000000 0.038340
                    }
                }
            }
        }
    }
}
MOTION
Frames:    10
Frame Time:    0.016667
0.010703    0.889569    1.158265    -1.025877    3.110397    -175.143524    -0.886091    -0.612442    -0.199201    -2.595413    0.486715    -0.054190    1.241474    8.321404    -0.465339    -0.774511    -2.217427    -0.139157    12.337731    1.793787    -1.275420    -16.806274    2.250327    -7.821550    -2.310484    -12.076433    0.251509    96.612007    1.543843    11.982287    -9.804641    -3.022468    3.531225    26.243967    -0.695214    -0.481271    -4.892161    -11.621456    -1.043739    -89.946609    2.475021    -11.666285    3.361320    9.802090    0.435794    -1.012663    -2.199898    2.617076    -5.058755    -8.303627    13.325591    0.000000    0.000000    0.000000    -6.388642    13.285441    2.865605    0.691336    -8.776712    0.564198    3.130979    -5.106442    -15.038866    0.000000    0.000000    0.000000    
0.011472    0.889574    1.158217    -1.012960    3.112549    -175.124619    -0.924042    -0.638259    -0.222615    -2.407068    0.612984    -0.060032    1.036678    8.368322    -0.430147    -0.738103    -2.419670    -0.150285    12.167626    2.301061    -0.986681    -16.933758    0.961577    -8.657293    -2.167144    -11.690681    0.564468    95.946053    1.342262    11.610513    -9.847399    -3.233138    3.357280    26.059341    -0.883690    -0.362295    -4.347487    -11.514396    -0.876769    -91.753006    2.691090    -11.505813    3.453511    9.713670    0.428734    -1.057315    -2.041873    2.474546    -5.057803    -8.392524    13.433920    0.000000    0.000000    0.000000    -6.268786    13.260888    2.801247    0.608631    -8.715930    0.629102    3.138830    -5.182492    -15.114084    0.000000    0.000000    0.000000    
0.011937    0.889489    1.158250    -1.012135    3.120361    -175.129425    -0.762363    -0.561990    -0.281777    -2.662112    0.518461    -0.080881    1.054823    8.342699    -0.395310    -0.612247    -2.186862    -0.123090    12.251833    1.948176    -1.191635    -16.967245    1.333903    -8.361380    -2.257584    -11.827149    0.484477    96.352951    1.177515    11.752452    -9.620778    -3.093031    3.409980    25.894150    -0.986937    -0.274642    -4.247791    -11.281210    -1.005780    -90.146126    2.417865    -11.314704    3.484297    9.576231    0.439528    -1.025634    -1.768874    2.481546    -5.138692    -8.457631    13.320330    0.000000    0.000000    0.000000    -6.221964    13.233418    2.793226    0.610987    -8.663076    0.602263    3.015328    -5.218135    -15.153723    0.000000    0.000000    0.000000    
0.012243    0.889449    1.158081    -1.007451    3.141100    -175.162415    -0.665422    -0.534519    -0.257043    -2.747972    0.506377    -0.072279    1.046289    8.476463    -0.430821    -0.656171    -2.284072    -0.155986    12.245616    2.252423    -1.050428    -16.984941    0.764260    -8.769356    -2.350365    -11.448839    0.544245    96.514885    1.543596    11.350043    -9.637913    -3.013103    3.432500    26.009550    -0.954730    -0.266640    -4.246904    -11.340980    -1.066695    -90.121910    2.347883    -11.377266    3.467402    9.510963    0.498619    -0.773235    -1.359994    2.330359    -5.284019    -8.664532    12.955805    0.000000    0.000000    0.000000    -6.188099    13.257504    2.817002    0.583927    -8.665540    0.611437    2.986026    -5.208188    -15.122926    0.000000    0.000000    0.000000    
0.012569    0.889530    1.158022    -1.022259    3.144661    -175.175858    -0.565410    -0.520864    -0.200278    -2.910965    0.546898    -0.051970    1.182005    8.475633    -0.542544    -0.817936    -2.282479    -0.225535    12.285447    2.303913    -1.242524    -17.061131    1.733180    -8.790057    -1.873930    -11.966278    0.634426    96.260094    1.681219    11.864183    -9.704862    -3.033867    3.372077    26.267082    -0.822627    -0.282247    -4.324884    -11.376561    -1.181008    -90.141876    2.417421    -11.417294    3.500733    9.508034    0.514762    -0.911893    -1.486619    2.283885    -5.312962    -8.605928    13.290539    0.000000    0.000000    0.000000    -6.171318    13.242750    2.839251    0.559143    -8.635209    0.568137    3.065894    -5.227640    -15.079745    0.000000    0.000000    0.000000    
0.012761    0.889650    1.157907    -1.035268    3.139654    -175.184692    -0.533881    -0.465590    -0.244185    -2.934139    0.501227    -0.068169    1.145433    8.522182    -0.540258    -0.815283    -2.373919    -0.231189    12.160330    1.716899    -1.467878    -16.756504    1.565022    -8.046052    -2.526734    -11.533032    0.138921    95.974457    1.547723    11.449256    -9.739908    -3.045623    3.423173    26.340124    -0.884148    -0.314634    -4.338027    -11.360204    -1.260094    -89.819077    2.554834    -11.411033    3.498497    9.497648    0.518914    -0.914006    -1.480165    2.244304    -5.315109    -8.591009    13.363859    0.000000    0.000000    0.000000    -6.172085    13.229226    2.844079    0.540832    -8.604843    0.629794    3.071138    -5.268810    -15.099127    0.000000    0.000000    0.000000    
0.012940    0.889683    1.157989    -1.043265    3.102878    -175.193253    -0.507591    -0.471521    -0.268853    -2.910546    0.526937    -0.075889    1.014982    8.525260    -0.488930    -0.726140    -2.439896    -0.215354    12.106286    1.625138    -1.425266    -17.055206    2.122446    -8.431773    -1.789175    -12.050628    0.921977    97.420128    1.832339    11.917724    -9.779157    -3.050123    3.376222    26.271664    -1.047929    -0.295977    -4.095322    -11.442136    -1.194841    -90.929031    2.821741    -11.461127    3.536341    9.512947    0.500924    -1.101047    -1.629827    2.386744    -5.111967    -8.437045    13.513288    0.000000    0.000000    0.000000    -6.178919    13.171951    2.874243    0.552068    -8.570895    0.628237    3.018130    -5.294194    -15.133924    0.000000    0.000000    0.000000    
0.012979    0.889681    1.157872    -1.064492    3.114342    -175.230270    -0.467486    -0.442726    -0.282863    -2.931364    0.519525    -0.080582    0.926106    8.579425    -0.462162    -0.681962    -2.429406    -0.210533    12.177689    2.128799    -0.993454    -17.099363    1.195930    -8.992708    -2.188732    -12.123019    0.663016    98.319534    2.038445    11.962372    -9.776663    -3.015003    3.398319    26.163248    -1.268452    -0.305613    -4.022933    -11.191854    -1.261337    -90.607437    2.704730    -11.220976    3.519346    9.495518    0.471802    -1.161472    -1.540762    2.595549    -4.892435    -8.327249    13.409973    0.000000    0.000000    0.000000    -6.226204    13.174237    2.914435    0.593742    -8.546935    0.621316    2.986210    -5.270648    -15.050295    0.000000    0.000000    0.000000    
0.013200    0.889636    1.157802    -1.068062    3.143552    -175.257797    -0.499754    -0.382245    -0.279142    -2.758688    0.542789    -0.079580    0.664729    8.553702    -0.397563    -0.552276    -2.418949    -0.212472    12.108100    2.064242    -1.004730    -17.208933    1.289416    -8.947968    -1.973774    -11.771174    0.723059    95.807060    1.305625    11.692759    -10.021997    -3.094263    3.411125    26.386908    -1.139174    -0.367195    -4.233143    -11.315713    -1.316700    -90.294907    2.677439    -11.356543    3.455587    9.406769    0.485894    -0.765919    -1.129445    2.341162    -5.518583    -8.765016    13.133131    0.000000    0.000000    0.000000    -6.220514    13.162183    2.912948    0.607783    -8.470813    0.720725    2.979714    -5.365551    -15.140131    0.000000    0.000000    0.000000    
0.013379    0.889639    1.157804    -1.095475    3.122016    -175.296387    -0.543072    -0.391149    -0.289022    -2.712914    0.538246    -0.083024    0.660395    8.629448    -0.366549    -0.604664    -2.406574    -0.175223    12.074684    2.154664    -0.994506    -17.241814    1.117049    -9.016299    -1.925558    -11.663628    0.827189    96.036705    1.501681    11.570831    -9.900784    -3.114557    3.434543    26.230566    -1.079955    -0.391927    -4.254615    -11.311508    -1.301646    -90.287598    2.652005    -11.352260    3.498588    9.519444    0.480589    -1.120081    -1.586075    2.440285    -5.122116    -8.432774    13.634303    0.000000    0.000000    0.000000    -6.244842    13.075828    2.896519    0.640158    -8.368274    0.781021    3.000603    -5.511683    -15.285131    0.000000    0.000000    0.000000    
